<svg width="285" height="350" viewBox="0 0 285 350" fill="none" xmlns="http://www.w3.org/2000/svg">
<g clip-path="url(#clip0_512_501)">
<path d="M36.1471 0.00124122C16.2206 0.00124122 0 16.2335 0 36.1592V313.842C0 333.768 16.2206 350 36.1471 350H248.482C268.409 350 284.629 333.768 284.629 313.842V85.5095C284.629 85.5095 285.198 78.8234 282.296 72.3173C279.575 66.2186 275.141 61.9739 275.141 61.9739C275.13 61.9589 275.119 61.9439 275.108 61.929L222.426 10.2559C222.398 10.2264 222.368 10.1972 222.339 10.1683C222.339 10.1683 217.841 5.88547 211.174 3.02438C203.323 -0.344406 195.231 0.0112138 195.231 0.0112138L195.352 0L36.1471 0.00124122Z" fill="#FF2116"/>
<path d="M36.1472 11.8789H195.352C195.392 11.8793 195.432 11.8793 195.473 11.8789C195.473 11.8789 201.839 11.9406 206.495 13.9388C210.977 15.862 214.155 18.7733 214.176 18.7928C214.176 18.7929 214.198 18.8152 214.198 18.8152L266.748 70.3678C266.748 70.3678 269.914 73.7104 271.448 77.1502C272.687 79.9267 272.763 85.0064 272.763 85.0064C272.758 85.0903 272.754 85.1742 272.752 85.2582V313.843C272.752 327.396 262.035 338.123 248.482 338.123H36.1472C22.5939 338.123 11.8774 327.397 11.8774 313.843V36.16C11.8774 22.6061 22.5939 11.8789 36.1472 11.8789Z" fill="#F5F5F5"/>
<path d="M71.0698 208.387C62.8978 200.215 71.7393 188.986 95.7339 177.061L110.832 169.558L116.713 156.689C119.948 149.611 124.777 138.062 127.443 131.025L132.29 118.229L128.95 108.76C124.842 97.1167 123.378 79.6198 125.984 73.3282C129.514 64.8061 141.076 65.6805 145.654 74.8157C149.229 81.9502 148.863 94.8707 144.626 111.165L141.151 124.524L144.212 129.719C145.895 132.576 150.811 139.361 155.137 144.796L163.267 154.909L173.384 153.588C205.524 149.395 216.532 156.522 216.532 166.743C216.532 179.641 191.295 180.706 170.103 165.821C165.335 162.472 162.06 159.145 162.06 159.145C162.06 159.145 148.784 161.848 142.248 163.61C135.5 165.428 132.134 166.567 122.251 169.903C122.251 169.903 118.783 174.939 116.523 178.6C108.116 192.221 98.3002 203.509 91.29 207.617C83.4411 212.217 75.2127 212.53 71.0698 208.387ZM83.8945 203.806C88.4881 200.967 97.7857 189.97 104.222 179.764L106.827 175.632L94.9626 181.597C76.6373 190.811 68.2539 199.495 72.6132 204.748C75.0621 207.698 77.9917 207.454 83.8945 203.806ZM202.927 170.394C207.42 167.247 206.768 160.905 201.689 158.348C197.735 156.358 194.549 155.949 184.28 156.101C177.969 156.531 167.822 157.803 166.102 158.19C166.102 158.19 171.677 162.043 174.152 163.459C177.446 165.341 185.453 168.834 191.298 170.623C197.065 172.388 200.4 172.202 202.927 170.394ZM155.066 150.501C152.347 147.643 147.723 141.677 144.791 137.244C140.956 132.215 139.034 128.667 139.034 128.667C139.034 128.667 136.231 137.682 133.931 143.107L126.758 160.838L124.678 164.86C124.678 164.86 135.735 161.235 141.361 159.765C147.32 158.209 159.413 155.831 159.413 155.831L155.066 150.501ZM139.642 88.6472C140.335 82.8269 140.63 77.0152 138.76 74.0845C133.573 68.4141 127.312 73.1427 128.373 86.6237C128.729 91.1588 129.856 98.9115 131.362 103.69L134.101 112.378L136.028 105.834C137.089 102.235 138.715 94.5012 139.642 88.6472Z" fill="#FF2116"/>
<path d="M84.9673 246.23H98.2348C102.474 246.23 105.915 246.636 108.558 247.447C111.201 248.232 113.426 249.999 115.231 252.746C117.037 255.468 117.94 258.752 117.94 262.599C117.94 266.132 117.207 269.167 115.742 271.706C114.276 274.244 112.3 276.076 109.814 277.201C107.355 278.326 103.56 278.889 98.4311 278.889H93.8385V299.811H84.9673V246.23ZM93.8385 253.1V271.784H98.2348C102.16 271.784 104.869 271.051 106.36 269.586C107.878 268.121 108.637 265.739 108.637 262.442C108.637 259.982 108.14 257.993 107.145 256.475C106.151 254.931 105.052 253.989 103.848 253.649C102.67 253.283 100.799 253.099 98.2348 253.099L93.8385 253.1Z" fill="#2C2C2C"/>
<path d="M124.73 246.23H136.781C142.617 246.23 147.275 247.264 150.755 249.331C154.262 251.399 156.905 254.474 158.684 258.556C160.49 262.638 161.393 267.165 161.393 272.137C161.393 277.371 160.582 282.042 158.959 286.151C157.363 290.233 154.903 293.53 151.58 296.042C148.282 298.555 143.572 299.811 137.448 299.811H124.73V246.23ZM133.602 253.335V292.706H137.291C142.447 292.706 146.189 290.926 148.518 287.368C150.847 283.782 152.011 279.007 152.011 273.04C152.011 259.904 147.105 253.335 137.291 253.335H133.602Z" fill="#2C2C2C"/>
<path d="M169.911 246.23H199.664V253.335H178.782V269.35H195.504V276.455H178.782V299.811H169.911V246.23Z" fill="#2C2C2C"/>
</g>
<defs>
<clipPath id="clip0_512_501">
<rect width="284.674" height="350" fill="white"/>
</clipPath>
</defs>
</svg>
